<svg id="Capa_1" data-name="Capa 1" xmlns="http://www.w3.org/2000/svg" viewBox="0 0 147 78.62"><defs><style>.cls-1{fill:#ff3864;}</style></defs><polygon class="cls-1" points="43.64 78.62 27.15 78.62 73.33 0 89.82 0 43.64 78.62"/><polygon class="cls-1" points="72.23 78.62 55.74 78.62 101.92 0 118.41 0 72.23 78.62"/><polygon class="cls-1" points="100.82 78.62 84.33 78.62 130.51 0 147 0 100.82 78.62"/><path class="cls-1" d="M26,59a24.7,24.7,0,0,1-9.55-19.52h0A24.74,24.74,0,0,1,41.24,14.71H52.05L60.6.14H39.31A39.31,39.31,0,0,0,0,39.45H0A39.29,39.29,0,0,0,18.08,72.53Z"/></svg>