<?xml version="1.0" encoding="UTF-8"?>
<svg id="Capa_1" xmlns="http://www.w3.org/2000/svg" version="1.1" viewBox="0 0 108 70">
  <!-- Generator: Adobe Illustrator 30.1.0, SVG Export Plug-In . SVG Version: 2.1.1 Build 136)  -->
  <defs>
    <style>
      .st0 {
        fill: #ffdc00;
      }

      .st1 {
        fill: #fff;
      }

      .st2 {
        fill: #1b3e8f;
      }
    </style>
  </defs>
  <rect class="st0" x="-.8" y="-.52" width="109.61" height="70.48"/>
  <g>
    <rect class="st2" x="6.74" y="51.85" width="93.81" height="8.37"/>
    <rect class="st1" x="6.74" y="49.83" width="93.81" height="2.02"/>
    <g>
      <path class="st2" d="M34.81,21.7c-1.52-10.87-9.28-11.64-9.28-11.64h-13.83s-.01,1.43-.01,1.43h2.28l.04,35.27h-2.23v1.29h14.09s5.71-.9,7.91-7.82c2.08-6.51,1.42-15.76,1.03-18.52ZM26.23,43.41s-.04.9-.51,1.66c-.59.95-1.07,1.19-1.07,1.19h-2.35V11.48h2.23s.5.09,1.05.79c.51.65.65,1.57.65,1.57v29.56Z"/>
      <path class="st2" d="M54.52,24.13s-.67-4.27-5.83-4.33c-3.28-.04-4.64.03-4.64.03,0,0-5.95.31-6.16,4.71-.19,3.97,1.61,5.07,2.31,5.42.88.43,4.39.11,4.98-2.16.59-2.26-.07-3.54-.44-4.56-.36-1.01-.21-1.87.72-1.91,1.37-.05,2.13.7,2.13,1.1l.02,9.32s-.68-.04-1.67,0c-8.59.34-10.2,6.97-9.1,11.82,1.09,4.86,4.88,4.41,5.42,4.4,3.82-.11,5.1-4.27,5.1-4.27h.4s.03.85.09,1.28c.38,2.69,2.78,2.87,3.41,2.93,1.46.13,3.34.06,3.34.06l-.06-23.85ZM47.64,41.77c-.07.78-.93,2.51-2.17,2.28-.92-.17-1.17-1.61-1.19-2.57-.01-1.21.34-6.31.34-6.31,0,0,.07-2.38,3.02-2.34v8.51s.01.32,0,.43Z"/>
      <path class="st2" d="M95.54,24.13s-.67-4.27-5.83-4.33c-3.28-.04-4.64.03-4.64.03,0,0-5.95.31-6.16,4.71-.19,3.97,1.61,5.07,2.31,5.42.88.43,4.38.11,4.98-2.16.59-2.26-.07-3.54-.44-4.56-.37-1.01-.21-1.87.72-1.91,1.37-.05,2.13.7,2.13,1.1v9.32s-.66-.04-1.66,0c-8.59.34-10.2,6.97-9.1,11.82,1.09,4.86,4.88,4.41,5.42,4.4,3.83-.11,5.1-4.27,5.1-4.27h.4s.03.85.09,1.28c.38,2.69,2.78,2.87,3.41,2.93,1.46.13,3.34.06,3.34.06l-.06-23.85ZM88.66,41.77c-.08.78-.93,2.51-2.17,2.28-.92-.17-1.17-1.61-1.18-2.57-.01-1.21.33-6.31.33-6.31,0,0,.07-2.38,3.02-2.34v8.51s.01.32,0,.43Z"/>
      <polygon class="st2" points="54.94 9.21 63.8 9.21 63.8 31.31 70 21.72 67.57 21.72 67.57 20.26 76.37 20.26 76.37 21.72 74.06 21.72 68.24 29.97 76.79 48.15 69.51 48.15 64.71 35.48 63.74 36.28 63.74 46.91 65.44 46.91 65.44 48.15 56.46 48.15 56.46 10.67 54.94 10.67 54.94 9.21"/>
    </g>
  </g>
</svg>